# xmcd CD database file
#
# Track frame offsets:
#	150
#	8430
#	28038
#	49507
#	57321
#	63527
#	74331
#	108371
#	119049
#	142586
#	161045
#	198764
#	204400
#	211054
#	216765
#	233949
#	247390
#
# Disc length: 3470 seconds
#
# Revision: 1
# Processed by: cddbd v1.5.2PL0 Copyright (c) Steve Scherf et al.
# Submitted via: CDex 1.92
#
DISCID=f40d8c11
DTITLE=Semafor - Dr. Johann Faust, Praha II, Karlovo nam.40
DYEAR=1982
DGENRE=Jazz
TTITLE0=Cas kraci kolem nas II (H+S) - V. Krumlova a J.D.Novotny
TTITLE1=monolog o valce III
TTITLE2=vecirek filmaru
TTITLE3=Kdyz laska kraci kol (H+S) - J.D.Novotny
TTITLE4=vecirek pokracuje
TTITLE5=Mne rytmus vnikl do zil (H+S) - V. Kresadlova
TTITLE6=Faust se omlouva
TTITLE7=Inferno
TTITLE8=My hrajeme dal (H+S) - V. Krumlova
TTITLE9=Kdo z vas ma spetku fantasie (H+S) - vsichni
TTITLE10=Faust rozmlouva s Mefistem
TTITLE11=Tady se zastavil cas (H+S) - J. Molavcova, J. Suchy
TTITLE12=Faust a Marketka v pracovne
TTITLE13=Tady se zastavil cas II (H+S) - J. Molavcova a J. Suchy
TTITLE14=zjeveni Mefista a nalet na Faustuv dum
TTITLE15=Exploze (H+S) - V. Krumlova
TTITLE16=pan Vagner se louci
EXTD=YEAR: 1982
EXTT0=
EXTT1=
EXTT2=
EXTT3=
EXTT4=
EXTT5=
EXTT6=
EXTT7=
EXTT8=
EXTT9=
EXTT10=
EXTT11=
EXTT12=
EXTT13=
EXTT14=
EXTT15=
EXTT16=
PLAYORDER=
